<svg xmlns="http://www.w3.org/2000/svg" width="88.202" height="98" viewBox="0 0 88.202 98">
  <g id="Page-1" transform="translate(0.001)">
    <g id="_026---Draught-Keg" data-name="026---Draught-Keg" transform="translate(-0.001 0)">
      <path id="Shape" d="M89.2,88.167v-16.3c0-.044-.021-.082-.024-.124a1.633,1.633,0,0,0-.064-.315,1.592,1.592,0,0,0-.118-.312c-.02-.036-.021-.078-.042-.114L80.786,57.934a1.636,1.636,0,0,0-2.777,1.731l6.618,10.568H79.4A3.267,3.267,0,0,0,76.134,73.5v1.633H69.6V71.566a4.871,4.871,0,0,0,0-9.2v-20.2a4.871,4.871,0,0,0,0-9.2V16.033a4.889,4.889,0,0,0-1.633-9.5H50V4.9A4.9,4.9,0,0,0,45.1,0H28.767a4.9,4.9,0,0,0-4.9,4.9V6.533H5.9a4.889,4.889,0,0,0-1.633,9.5V32.967a4.871,4.871,0,0,0,0,9.2v20.2a4.871,4.871,0,0,0,0,9.2V88.5A4.889,4.889,0,0,0,5.9,98H67.967A4.889,4.889,0,0,0,69.6,88.5V84.933h6.533V88.2a1.527,1.527,0,0,0,.057.286,1.569,1.569,0,0,0,.059.327l2.661,6.641a4.046,4.046,0,0,0,7.513,0L89.085,88.8a1.551,1.551,0,0,0,.057-.327A1.521,1.521,0,0,0,89.2,88.2ZM79.4,73.5h6.533V86.567H79.4ZM27.134,4.9a1.633,1.633,0,0,1,1.633-1.633H45.1A1.633,1.633,0,0,1,46.734,4.9V6.533h-19.6ZM5.9,9.8H67.967a1.633,1.633,0,1,1,0,3.267H5.9A1.633,1.633,0,0,1,5.9,9.8Zm0,26.133H17.334a1.633,1.633,0,1,0,0-3.267h-9.8V16.333h58.8V32.667h-39.2a1.633,1.633,0,1,0,0,3.267H67.967a1.633,1.633,0,1,1,0,3.267H5.9a1.633,1.633,0,1,1,0-3.267Zm0,29.4H17.334a1.633,1.633,0,1,0,0-3.267h-9.8v-19.6h58.8v19.6h-39.2a1.633,1.633,0,1,0,0,3.267H67.967a1.633,1.633,0,1,1,0,3.267H5.9a1.633,1.633,0,1,1,0-3.267Zm62.067,29.4H5.9a1.633,1.633,0,1,1,0-3.267H17.334a1.633,1.633,0,1,0,0-3.267h-9.8V71.867h58.8V88.2h-39.2a1.633,1.633,0,1,0,0,3.267H67.967a1.633,1.633,0,1,1,0,3.267ZM69.6,81.667V78.4h6.533v3.267ZM81.945,94.243l-1.766-4.41h4.975l-1.766,4.41a.807.807,0,0,1-1.444,0Z" transform="translate(-0.999 0)" fill="#fff"/>
      <path id="Shape-2" data-name="Shape" d="M7.29,11.29A1.047,1.047,0,0,0,7,12a.838.838,0,0,0,.08.38,1.032,1.032,0,0,0,.21.33,1.014,1.014,0,0,0,1.42,0,1.032,1.032,0,0,0,.21-.33,1,1,0,0,0-1.63-1.09Z" transform="translate(-0.999 7.204)" fill="#fff"/>
      <path id="Shape-3" data-name="Shape" d="M8,14a1,1,0,0,0-1,1v2a1,1,0,0,0,2,0V15A1,1,0,0,0,8,14Z" transform="translate(-0.999 9.5)" fill="#fff"/>
      <path id="Shape-4" data-name="Shape" d="M7.29,28.29A1.047,1.047,0,0,0,7,29a.838.838,0,0,0,.08.38,1.032,1.032,0,0,0,.21.33,1.014,1.014,0,0,0,1.42,0,1.032,1.032,0,0,0,.21-.33,1,1,0,0,0-1.63-1.09Z" transform="translate(-0.999 18.343)" fill="#fff"/>
      <path id="Shape-5" data-name="Shape" d="M8,31a1,1,0,0,0-1,1v2a1,1,0,0,0,2,0V32A1,1,0,0,0,8,31Z" transform="translate(-0.999 21.036)" fill="#fff"/>
      <path id="Shape-6" data-name="Shape" d="M7.29,45.29A1.047,1.047,0,0,0,7,46a.838.838,0,0,0,.08.38,1.032,1.032,0,0,0,.21.33,1.014,1.014,0,0,0,1.42,0,1.032,1.032,0,0,0,.21-.33,1,1,0,0,0-1.63-1.09Z" transform="translate(-0.999 29.482)" fill="#fff"/>
      <path id="Shape-7" data-name="Shape" d="M8,48a1,1,0,0,0-1,1v2a1,1,0,0,0,2,0V49A1,1,0,0,0,8,48Z" transform="translate(-0.999 38)" fill="#fff"/>
    </g>
  </g>
</svg>
