<svg xmlns="http://www.w3.org/2000/svg" width="98" height="89.833" viewBox="0 0 98 89.833">
  <g id="Grupo_16" data-name="Grupo 16" transform="translate(-5301.19 73.052)">
    <g id="Grupo_15" data-name="Grupo 15" transform="translate(5301.19 -73.052)">
      <g id="Grupo_11" data-name="Grupo 11" transform="translate(0)">
        <path id="Shape" d="M94.733,45.948H93.564c-.041-.171-.077-.341-.121-.516A22.855,22.855,0,0,0,90.666,39.1c-.327-.56-.665-1.155-1.027-1.82a38.571,38.571,0,0,1-4.706-18.426V15.886a5.7,5.7,0,0,0,0-10.313c-14.821,0-4.914,0-13.067,0A5.581,5.581,0,0,0,68.6,10.717a5.741,5.741,0,0,0,3.267,5.168v2.966a38.862,38.862,0,0,1-1.191,9.513,38.456,38.456,0,0,1-3.51,8.915l-.591,1.078a37.086,37.086,0,0,0-2.842,5.989,24.629,24.629,0,0,0-2.471-5.25c-.327-.56-.665-1.155-1.027-1.82a38.571,38.571,0,0,1-4.7-18.426V15.886a5.7,5.7,0,0,0,0-10.313c-9.872,0-8.548,0-13.067,0A5.581,5.581,0,0,0,39.2,10.717a5.741,5.741,0,0,0,3.267,5.168v2.966a38.862,38.862,0,0,1-1.191,9.513,38.457,38.457,0,0,1-3.51,8.915l-.591,1.078a37.087,37.087,0,0,0-2.842,5.989,24.629,24.629,0,0,0-2.471-5.25c-.327-.56-.665-1.155-1.027-1.82a38.571,38.571,0,0,1-4.7-18.426V15.886a5.7,5.7,0,0,0,0-10.313l-13.067,0A5.581,5.581,0,0,0,9.8,10.717a5.741,5.741,0,0,0,3.267,5.168v2.966a38.862,38.862,0,0,1-1.191,9.506,38.457,38.457,0,0,1-3.51,8.915l-.591,1.078a31.458,31.458,0,0,0-3.334,7.6H3.267A3.267,3.267,0,0,0,0,49.214V62.281a3.267,3.267,0,0,0,3.267,3.267v9.686A3.267,3.267,0,0,0,0,78.5V91.567a3.267,3.267,0,0,0,3.267,3.267H94.733A3.267,3.267,0,0,0,98,91.567V78.5a3.267,3.267,0,0,0-3.267-3.267V65.548A3.267,3.267,0,0,0,98,62.281V49.214a3.267,3.267,0,0,0-3.267-3.267ZM81.667,5h0ZM72.582,8.98a2.461,2.461,0,0,1,1.735-.714h8.167a2.45,2.45,0,0,1,.49,4.851c-.046.01-.08.036-.124.049h-8.9a1.2,1.2,0,0,0-.127-.049A2.45,2.45,0,0,1,72.582,8.98Zm-3.146,30.95.6-1.089a41.792,41.792,0,0,0,3.809-9.678,42.179,42.179,0,0,0,1.29-10.313V16.433h6.533v2.417a41.867,41.867,0,0,0,5.1,19.99c.376.688.728,1.307,1.065,1.886a20.129,20.129,0,0,1,2.357,5.227H66.64a31.218,31.218,0,0,1,2.8-6.024ZM52.267,5h0ZM43.182,8.98a2.461,2.461,0,0,1,1.735-.714h8.167a2.45,2.45,0,0,1,.49,4.851c-.046.01-.08.036-.124.049h-8.9a1.2,1.2,0,0,0-.127-.049A2.45,2.45,0,0,1,43.182,8.98Zm-3.146,30.95.6-1.089a41.792,41.792,0,0,0,3.809-9.678,42.178,42.178,0,0,0,1.29-10.313V16.433h6.533v2.417a41.867,41.867,0,0,0,5.1,19.99c.376.688.728,1.307,1.065,1.886a20.13,20.13,0,0,1,2.357,5.227H37.24a31.218,31.218,0,0,1,2.8-6.024ZM22.867,5h0ZM13.782,8.98a2.461,2.461,0,0,1,1.735-.714h8.167a2.45,2.45,0,0,1,.49,4.851c-.046.01-.08.036-.124.049h-8.9a1.2,1.2,0,0,0-.124-.049A2.45,2.45,0,0,1,13.785,8.98Zm-3.146,30.95.6-1.089a41.792,41.792,0,0,0,3.809-9.678,42.178,42.178,0,0,0,1.29-10.313V16.433h6.533v2.417a41.867,41.867,0,0,0,5.1,19.99c.376.688.728,1.307,1.065,1.886a20.13,20.13,0,0,1,2.357,5.227H7.84a31.218,31.218,0,0,1,2.8-6.024Zm-4.1,25.617H32.667v9.686H6.533Zm55.533,0v9.686H35.933V65.548ZM94.733,91.567H3.267V78.5H94.733ZM91.467,75.233H65.333V65.548H91.467ZM3.267,62.281V49.214H94.733V62.281Z" transform="translate(0 -5)"/>
        <circle id="Oval" cx="1.979" cy="1.979" r="1.979" transform="translate(7.915 48.723)"/>
        <circle id="Oval-2" data-name="Oval" cx="1.979" cy="1.979" r="1.979" transform="translate(88.108 48.723)"/>
        <circle id="Oval-3" data-name="Oval" cx="2.991" cy="2.991" r="2.991" transform="translate(83.956 74.88)"/>
        <path id="Shape-2" data-name="Shape" d="M18.893,44H10.979a1.979,1.979,0,1,0,0,3.957h7.914a1.979,1.979,0,1,0,0-3.957Z" transform="translate(6.109 19.192)"/>
        <path id="Shape-3" data-name="Shape" d="M28.979,47.957h7.914a1.979,1.979,0,1,0,0-3.957H28.979a1.979,1.979,0,1,0,0,3.957Z" transform="translate(16.064 19.192)"/>
        <path id="Shape-4" data-name="Shape" d="M48.979,47.957h7.914a1.979,1.979,0,1,0,0-3.957H48.979a1.979,1.979,0,1,0,0,3.957Z" transform="translate(25.279 19.192)"/>
        <circle id="Oval-4" data-name="Oval" cx="2.991" cy="2.991" r="2.991" transform="translate(8.972 74.88)"/>
      </g>
    </g>
  </g>
</svg>
