<svg id="Page-1" xmlns="http://www.w3.org/2000/svg" width="117.6" height="98" viewBox="0 0 117.6 98">
  <g id="_028---Draught-Keg" data-name="028---Draught-Keg">
    <path id="Shape" d="M46,6a1,1,0,0,0-1-1c-3.3,0-7,6.843-7,16a1,1,0,0,0,2,0c0-8.711,3.473-14,5-14A1,1,0,0,0,46,6Z" transform="translate(42.092)" fill="#fff"/>
    <path id="Shape-2" data-name="Shape" d="M107.8,37.24V31.36h1.96a5.88,5.88,0,0,0,0-11.76h-3.51C102.341,8.646,95.76,2.107,88.429,1.974c-.349-.047-6.823-.886-16.36-1.445h-.125c-.059,0-.116-.02-.174-.022L69.752.392C68.706.339,67.632.286,66.524.237c-1.46-.061-2.94-.1-4.473-.139L60.111.041H58.663a1.7,1.7,0,0,0-.331,0h-.172C57.071.014,55.989,0,54.88,0,49.706,0,44.813.157,40.431.378h-.094c-3.589.182-6.815.41-9.557.637h-.027c-5.194.429-8.636.851-9.322.937C9.408,2.083,0,19.257,0,41.16,0,59.029,6.26,73.743,15.092,78.625A15.692,15.692,0,0,0,1.96,94.08v1.96A1.96,1.96,0,0,0,3.92,98h7.84a1.96,1.96,0,0,0,1.96-1.96V94.08a3.92,3.92,0,0,1,3.92-3.92h39.2a3.92,3.92,0,0,1,3.92,3.92v1.96A1.96,1.96,0,0,0,62.72,98h7.84a1.96,1.96,0,0,0,1.96-1.96V94.08a3.92,3.92,0,0,1,3.92-3.92H92.12a3.92,3.92,0,0,1,3.92,3.92v1.96A1.96,1.96,0,0,0,98,98h7.84a1.96,1.96,0,0,0,1.96-1.96V94.08A15.692,15.692,0,0,0,94.615,78.618c4.347-2.413,8.175-7.252,10.911-13.969.106,0,.2.031.314.031h7.84a3.92,3.92,0,0,0,3.92-3.92V47.04A9.812,9.812,0,0,0,107.8,37.24Zm-3.92,0H99.96V31.36h3.92Zm7.84-11.76a1.96,1.96,0,0,1-1.96,1.96H94.08a1.96,1.96,0,0,1,0-3.92h15.68A1.96,1.96,0,0,1,111.72,25.48ZM66.748,37.138q-.108,1.991-.108,4.022t.108,4.012C67.532,59.847,72.6,71.907,79.713,77.3c-1.023.09-2.142.178-3.314.267C68.453,73.533,62.72,58.355,62.72,41.16S68.449,8.789,76.4,4.743c1.176.088,2.293.176,3.318.265C72.6,10.4,67.536,22.464,66.748,37.138ZM17.64,41.16C17.64,24,23.412,8.851,31.4,4.9l1.521-.118C26.027,11.7,21.56,25.425,21.56,41.16s4.467,29.459,11.368,36.378c-.517-.039-1.035-.078-1.523-.12C23.412,73.467,17.64,58.32,17.64,41.16ZM49.517,3.979C42.226,10.584,37.24,24.737,37.24,41.16s4.988,30.576,12.275,37.181c-3.073-.063-6-.171-8.724-.308a6.883,6.883,0,0,1-.8-.278,1.593,1.593,0,0,0-.178-.065c-8.179-3.446-14.335-19.1-14.335-36.53S31.632,8.087,39.81,4.633c.063-.02.123-.043.184-.069a7.291,7.291,0,0,1,.772-.278C43.5,4.149,46.434,4.042,49.517,3.979ZM41.16,41.16c0-18.908,6.976-34.953,15.649-36.971C49.706,11.017,45.08,25.047,45.08,41.16s4.612,30.1,11.7,36.944C48.051,75.913,41.16,59.935,41.16,41.16ZM69.553,4.312l.86.041C63.392,11.243,58.8,25.259,58.8,41.16s4.592,29.91,11.609,36.809c-1.3.073-2.646.139-4.045.2-.713.029-1.464.045-2.191.067a4.075,4.075,0,0,1-.588-.214,1.988,1.988,0,0,0-.233-.092C55.158,74.466,49,58.7,49,41.16S55.152,7.869,63.332,4.4a2.352,2.352,0,0,0,.245-.1,4.288,4.288,0,0,1,.588-.216c.733.024,1.486.039,2.2.069C67.453,4.2,68.518,4.255,69.553,4.312ZM3.92,41.16C3.92,22.036,12,5.88,21.56,5.88a1.862,1.862,0,0,0,.257-.018c.035,0,.945-.122,2.536-.3C17.893,12.74,13.72,26.1,13.72,41.16s4.173,28.42,10.633,35.594c-1.592-.174-2.5-.292-2.536-.3a1.861,1.861,0,0,0-.257-.018C12,76.44,3.92,60.284,3.92,41.16Zm99.96,52.92H99.96a7.84,7.84,0,0,0-7.84-7.84H76.44a7.84,7.84,0,0,0-7.84,7.84H64.68a7.84,7.84,0,0,0-7.84-7.84H17.64A7.84,7.84,0,0,0,9.8,94.08H5.88A11.772,11.772,0,0,1,17.64,82.32H92.12A11.772,11.772,0,0,1,103.88,94.08ZM88.2,76.44a8.546,8.546,0,0,1-1.656-.174l-.176-.029a9.553,9.553,0,0,1-1.531-.484c-.088-.035-.176-.071-.265-.11a11.281,11.281,0,0,1-1.415-.747c-.122-.076-.243-.163-.367-.245a13.844,13.844,0,0,1-1.113-.835c-.214-.174-.423-.365-.635-.559q-.417-.382-.823-.808c-.176-.18-.351-.365-.523-.557a24.647,24.647,0,0,1-2.548-3.477c-.074-.122-.149-.247-.221-.37-.27-.457-.527-.941-.784-1.427-.184-.349-.367-.7-.545-1.064-.29-.588-.572-1.211-.841-1.848-.074-.176-.149-.357-.221-.535-.31-.762-.61-1.544-.888-2.352l-.082-.247q-.445-1.317-.831-2.709c-.016-.055-.029-.112-.045-.167q-.392-1.415-.71-2.895c-.024-.11-.041-.223-.065-.333-.2-.937-.378-1.887-.535-2.86-.043-.263-.073-.533-.11-.8-.125-.837-.245-1.68-.337-2.548-.057-.543-.09-1.1-.135-1.644-.049-.613-.112-1.223-.145-1.846-.057-1.192-.092-2.4-.092-3.61s.035-2.421.1-3.618c.033-.612.094-1.207.143-1.811.045-.561.078-1.125.137-1.678.09-.843.208-1.666.329-2.487.041-.284.074-.576.12-.858.153-.949.329-1.876.521-2.791.027-.135.051-.274.08-.41q.314-1.441.692-2.818c.022-.082.041-.167.065-.249.251-.906.523-1.784.811-2.64l.106-.321c.274-.784.566-1.558.868-2.3.08-.2.161-.392.243-.588.265-.627.543-1.233.829-1.823.178-.363.361-.715.545-1.064.263-.5.523-.98.8-1.456l.2-.325a24.966,24.966,0,0,1,2.548-3.489c.176-.2.357-.392.537-.57.269-.282.543-.549.819-.8.206-.2.412-.374.619-.547A13.916,13.916,0,0,1,82.8,7.66c.118-.08.237-.163.355-.237a11.269,11.269,0,0,1,1.423-.751l.257-.108a9.659,9.659,0,0,1,1.535-.484l.176-.029A8.546,8.546,0,0,1,88.2,5.88c5.335,0,10.51,5.2,13.865,13.72H94.08a5.88,5.88,0,0,0,0,11.76h1.96v5.88H92.12a3.92,3.92,0,0,0-3.92,3.92V49a3.92,3.92,0,0,0,3.92,3.92h4.718C94.692,63.224,90.2,68.6,88.2,68.6a1.96,1.96,0,0,0,0,3.92c5.125,0,10.388-8.22,12.593-19.4a1.96,1.96,0,0,1,1.127,1.764v5.88a3.891,3.891,0,0,0,.314,1.535C98.851,71.164,93.649,76.44,88.2,76.44Zm25.48-15.68h-7.84V54.88A5.88,5.88,0,0,0,99.96,49H92.12V41.16H107.8a5.88,5.88,0,0,1,5.88,5.88Z" fill="#fff"/>
  </g>
</svg>
