<svg id="Page-1" xmlns="http://www.w3.org/2000/svg" width="96.354" height="98" viewBox="0 0 96.354 98">
  <g id="_024---Wine-Still" data-name="024---Wine-Still" transform="translate(0 0)">
    <path id="Shape" d="M73.3,30.434a14.607,14.607,0,0,0-10.4-4.3H52.376l-9.909-1.416V11.433a4.9,4.9,0,0,0-4.9-4.9V3.267A3.267,3.267,0,0,0,34.3,0H16.333A6.533,6.533,0,0,0,9.8,6.533,3.267,3.267,0,0,0,6.533,9.8V34.3A3.267,3.267,0,0,0,9.8,37.567v1.486a6.488,6.488,0,0,0,1.519,4.181l3.218,3.878C8.139,48.283,0,50.718,0,55.533a5.744,5.744,0,0,0,3.267,4.675v26.1a6.533,6.533,0,0,0,2.314,5C8.534,93.8,15.768,98,31.033,98s22.494-4.2,25.447-6.7a6.533,6.533,0,0,0,2.319-5v-26.1a5.748,5.748,0,0,0,3.267-4.675c0-5.976-12.75-8.274-18.194-8.983-.448-.07-.893-.121-1.343-.171-.7-.083-1.421-.163-2.167-.235l-1.212-.1c-.415-.034-.828-.069-1.187-.08-.6-.051-1.222-.085-1.932-.121h-.1V40.833h1.633a4.889,4.889,0,0,0,4.655-3.45l10.154-1.45H62.895a4.871,4.871,0,0,1,3.468,1.432L88.006,58.993a4.891,4.891,0,0,0,6.916-6.917Zm-39-23.9H27.767V3.267H34.3ZM9.8,9.8h3.267V34.3H9.8Zm3.267,29.253V37.567A3.267,3.267,0,0,0,16.333,34.3V9.8a3.267,3.267,0,0,0-3.267-3.267,3.267,3.267,0,0,1,3.267-3.267H24.5V6.533a4.9,4.9,0,0,0-4.9,4.9v24.5a4.9,4.9,0,0,0,4.9,4.9h1.633v5.009h-.188c-.621.034-1.241.069-1.772.114-.431.016-.844.051-1.266.085-.595.051-1.155.1-1.7.163q-1.49.142-2.9.327l-4.495-5.4A3.214,3.214,0,0,1,13.067,39.053Zm41.3,49.758c-2.612,2.212-9.124,5.922-23.334,5.922S10.3,91.022,7.691,88.811a3.276,3.276,0,0,1-1.158-2.5v-24.5c5.682,2.2,14.715,3.526,24.5,3.526s18.811-1.328,24.5-3.533V86.3A3.278,3.278,0,0,1,54.367,88.811ZM58.8,55.533c0,.49-.634,1.346-2.409,2.3-4.778,2.569-14.731,4.23-25.358,4.23s-20.58-1.661-25.359-4.23c-1.779-.957-2.408-1.813-2.408-2.3,0-.719,1.076-1.733,3.322-2.749,1.161,5.841,22,6.016,24.444,6.016s23.309-.175,24.444-6.03C57.715,53.782,58.8,54.8,58.8,55.533ZM37.761,49.227c.382.015.748.046,1.125.078l1.191.1c.7.064,1.39.144,2.076.225.416.046.817.093,1.238.163,5.738.817,8.065,1.936,8.729,2.489-1.431,1.271-9.018,3.267-21.09,3.267s-19.651-2-21.09-3.272c.6-.49,2.553-1.437,7.059-2.208l1.341,1.612a1.634,1.634,0,1,0,2.512-2.091l-.046-.054c.253-.028.5-.056.768-.082.534-.051,1.058-.106,1.607-.149.368-.031.735-.062,1.189-.08.572-.049,1.16-.08,1.661-.109h.108a3.267,3.267,0,0,0,3.26,3.152h3.267a3.267,3.267,0,0,0,3.255-3.156h.024C36.529,49.144,37.116,49.175,37.761,49.227Zm-5.094-1.88V49H29.4V40.833h3.267Zm4.9-9.78H24.5a1.633,1.633,0,0,1-1.633-1.633v-24.5A1.633,1.633,0,0,1,24.5,9.8H37.567A1.633,1.633,0,0,1,39.2,11.433v24.5A1.633,1.633,0,0,1,37.567,37.567Zm4.9-9.55,8.167,1.166v3.7L42.467,34.05Zm20.428,4.65H53.9V29.4h9a11.361,11.361,0,0,1,8.09,3.343L84.117,45.879l-2.3,2.3L68.677,35.056A8.114,8.114,0,0,0,62.895,32.667ZM92.61,56.677a1.633,1.633,0,0,1-2.3,0l-6.2-6.185,2.3-2.308,6.207,6.207a1.594,1.594,0,0,1,0,2.287Z" transform="translate(0 0)" fill="#fff"/>
    <path id="Shape-2" data-name="Shape" d="M13,45a1,1,0,0,0,0-2H11V42a1,1,0,0,0-2,0V54a1,1,0,0,0,2,0V52.987h2a1,1,0,0,0,0-2H11v-2h2a1,1,0,0,0,0-2H11V45Z" transform="translate(6.228 38)" fill="#fff"/>
    <path id="Shape-3" data-name="Shape" d="M16.29,43.29l-.12.15a.757.757,0,0,0-.09.18.636.636,0,0,0-.06.18A1.355,1.355,0,0,0,16,44a1,1,0,0,0,.08.38,1.155,1.155,0,0,0,.21.33A1.052,1.052,0,0,0,17,45a1.033,1.033,0,0,0,.71-.29,1.155,1.155,0,0,0,.21-.33,1,1,0,0,0-1.63-1.09Z" transform="translate(10.489 28.171)" fill="#fff"/>
    <path id="Shape-4" data-name="Shape" d="M16.29,47.278l-.12.149a.8.8,0,0,0-.09.18.636.636,0,0,0-.06.18,1.355,1.355,0,0,0-.02.2.994.994,0,0,0,.08.379,1.16,1.16,0,0,0,.21.331,1.056,1.056,0,0,0,.71.29,1.037,1.037,0,0,0,.71-.29,1.16,1.16,0,0,0,.21-.331,1,1,0,0,0-1.63-1.089Z" transform="translate(10.489 30.784)" fill="#fff"/>
    <path id="Shape-5" data-name="Shape" d="M16.29,51.278l-.12.149a.8.8,0,0,0-.09.18.636.636,0,0,0-.06.18,1.355,1.355,0,0,0-.02.2.994.994,0,0,0,.08.379,1.16,1.16,0,0,0,.21.331,1.056,1.056,0,0,0,.71.29,1.037,1.037,0,0,0,.71-.29,1.16,1.16,0,0,0,.21-.331,1,1,0,0,0-1.63-1.089Z" transform="translate(10.489 38)" fill="#fff"/>
  </g>
</svg>
