<svg id="Page-1" xmlns="http://www.w3.org/2000/svg" width="98" height="98" viewBox="0 0 98 98">
  <g id="_003---Mashing-Tank" data-name="003---Mashing-Tank">
    <path id="Shape" d="M97.951,42.07l-1.633-6.533a1.42,1.42,0,0,0-.087-.2c-.018-.044-.015-.091-.036-.136a14.21,14.21,0,0,0-8-6.143V21.233a3.255,3.255,0,0,0-1.633-2.813V3.267A3.267,3.267,0,0,0,83.3,0H76.767A3.267,3.267,0,0,0,73.5,3.267V18.421a3.255,3.255,0,0,0-1.633,2.813v6.533h-4.9V8.167a8.235,8.235,0,0,0-.163-1.62c-.046-.22-.132-.423-.194-.637a7.857,7.857,0,0,0-.276-.887,8.022,8.022,0,0,0-.4-.75c-.119-.217-.216-.444-.354-.653-.114-.163-.26-.314-.385-.474a8.448,8.448,0,0,0-.626-.768,8.438,8.438,0,0,0-1.184-.967c-.091-.062-.194-.1-.287-.163A8.441,8.441,0,0,0,62.05.683c-.139-.06-.287-.1-.43-.15A8.425,8.425,0,0,0,60.553.206C60.433.173,60.3.163,60.17.139A8.2,8.2,0,0,0,59.329,0c-.119,0-.234.016-.353.015C58.918.016,58.86,0,58.8,0a1.364,1.364,0,0,0-.163.033,7.9,7.9,0,0,0-5.251,2.149,8.75,8.75,0,0,0-2.752,6.36V27.767a1.589,1.589,0,0,1-.49,1.161,1.565,1.565,0,0,1-1.5.425,1.842,1.842,0,0,1-1.272-1.839V8.167A8.167,8.167,0,0,0,38.374.042c-.137.013-.265.06-.4.082a8.167,8.167,0,0,0-.817.163c-.183.051-.363.1-.541.163a8.31,8.31,0,0,0-1.111.467l-.018.01a8.145,8.145,0,0,0-4.454,7.239,1.012,1.012,0,0,0,.021.1c0,.075-.021.147-.021.222V27.767h-4.9V21.233A3.255,3.255,0,0,0,24.5,18.421V3.267A3.267,3.267,0,0,0,21.233,0H14.7a3.267,3.267,0,0,0-3.267,3.267V18.421A3.255,3.255,0,0,0,9.8,21.233V29.06a14.21,14.21,0,0,0-8,6.143c-.021.044-.018.091-.036.136a1.511,1.511,0,0,0-.087.2L.049,42.07a1.5,1.5,0,0,0,0,.163A1.49,1.49,0,0,0,0,42.467v49a4.9,4.9,0,1,0,9.8,0V91.15c1.088.114,2.177.2,3.267.268V93.1a4.9,4.9,0,1,0,9.8,0V91.418c1.089-.07,2.179-.154,3.267-.268v.317a4.9,4.9,0,1,0,9.8,0V83.3h8.791a6.414,6.414,0,0,0,8.552,0h8.791v8.167a4.9,4.9,0,0,0,9.8,0V91.15c1.088.114,2.177.2,3.267.268V93.1a4.9,4.9,0,0,0,9.8,0V91.418c1.089-.07,2.179-.154,3.267-.268v.317a4.9,4.9,0,0,0,9.8,0v-49a1.49,1.49,0,0,0-.046-.225A1.5,1.5,0,0,0,97.951,42.07Zm-14.6,46.173c-.016,0-.031-.01-.047-.01s-.039.011-.06.013q-3.2.137-6.412,0c-.021,0-.039-.013-.06-.013s-.031.01-.047.01a75.036,75.036,0,0,1-11.386-1.382V44.1h29.4V86.861A75.036,75.036,0,0,1,83.347,88.242ZM53.9,39.037a8.193,8.193,0,0,0,5.137-3.44,6.489,6.489,0,0,0,4.216,1.926l-1.143,4.549a1.5,1.5,0,0,0,0,.163,1.489,1.489,0,0,0-.042.232V73.5H53.9Zm26.133-8A17.261,17.261,0,0,1,91.14,34.3H68.927A17.259,17.259,0,0,1,80.033,31.033ZM66.609,37.567H93.458l.817,3.267H65.792Zm13.424-9.8a26.96,26.96,0,0,0-4.9.438V21.233h9.8V28.2A26.96,26.96,0,0,0,80.033,27.767ZM83.3,3.267v14.7H76.767V3.267ZM31.85,31.033a2.45,2.45,0,0,0,2.45-2.45V8.493a5.241,5.241,0,0,1,3.379-4.957c.09-.029.18-.06.273-.085a4.574,4.574,0,0,1,.514-.108q.245-.034.49-.049a4.82,4.82,0,0,1,3.526,1.233A4.915,4.915,0,0,1,44.1,8.167V27.513a5.1,5.1,0,0,0,3.8,5.023,5.024,5.024,0,0,0,1.127.129,4.758,4.758,0,0,0,3.419-1.426A4.809,4.809,0,0,0,53.9,27.767V8.542a5.48,5.48,0,0,1,1.725-3.979,4.665,4.665,0,0,1,3.239-1.3,4.96,4.96,0,0,1,.83.083.59.59,0,0,1,.131.021,4.83,4.83,0,0,1,.728.227c.06.023.126.039.186.065a4.883,4.883,0,0,1,.722.392c.028.018.057.029.083.047a4.921,4.921,0,0,1,1.178,1.143c.046.06.1.114.144.176.078.114.131.243.2.364a5.046,5.046,0,0,1,.256.482c.059.142.091.3.137.444a4.735,4.735,0,0,1,.144.47,4.874,4.874,0,0,1,.1.983V28.583a2.45,2.45,0,0,0,2.45,2.45H67.9A13.7,13.7,0,0,0,64.443,34.3H63.7a3.267,3.267,0,0,1-3.267-3.267V8.167a1.633,1.633,0,1,0-3.267,0V31.033a4.9,4.9,0,0,1-4.9,4.9,1.633,1.633,0,0,0-1.633,1.633V72.1a5.867,5.867,0,0,0-3.267,0V68.6a1.633,1.633,0,0,0-1.633-1.633h-9.8V63.7h9.8a1.633,1.633,0,0,0,1.633-1.633v-24.5a1.633,1.633,0,0,0-1.633-1.633,4.9,4.9,0,0,1-4.9-4.9V8.167a1.633,1.633,0,1,0-3.267,0V31.033A3.267,3.267,0,0,1,34.3,34.3h-.743A13.7,13.7,0,0,0,30.1,31.033ZM21.281,88.242c-.016,0-.031-.01-.047-.01s-.039.011-.06.013q-3.2.137-6.412,0c-.021,0-.039-.013-.06-.013s-.031.01-.047.01A75.036,75.036,0,0,1,3.267,86.861V44.1h29.4V86.861A75.036,75.036,0,0,1,21.281,88.242ZM17.967,31.033A17.261,17.261,0,0,1,29.073,34.3H6.86A17.259,17.259,0,0,1,17.967,31.033Zm21,4.562A8.193,8.193,0,0,0,44.1,39.037v21.4H35.933V42.467a1.489,1.489,0,0,0-.046-.225,1.5,1.5,0,0,0,0-.163l-1.143-4.549A6.489,6.489,0,0,0,38.963,35.6ZM4.542,37.567H31.391l.817,3.267H3.726ZM35.933,70.233H44.1V73.5H35.933ZM21.233,3.267v14.7H14.7V3.267ZM13.067,21.233h9.8V28.2a27.644,27.644,0,0,0-9.8,0ZM6.533,91.467a1.633,1.633,0,0,1-3.267,0v-1.29c1.088.207,2.176.405,3.267.567ZM19.6,93.1a1.633,1.633,0,0,1-3.267,0V91.55c.544.011,1.089.041,1.633.041s1.089-.029,1.633-.041Zm11.433,0A1.633,1.633,0,0,1,29.4,91.467v-.724c1.091-.163,2.179-.359,3.267-.567v1.29A1.633,1.633,0,0,1,31.033,93.1Zm4.9-16.333H42.7a5.867,5.867,0,0,0,0,3.267H35.933Zm9.8,1.633A3.267,3.267,0,1,1,49,81.667,3.267,3.267,0,0,1,45.733,78.4ZM55.3,80.033a5.867,5.867,0,0,0,0-3.267h6.765v3.267ZM68.6,91.467a1.633,1.633,0,0,1-3.267,0v-1.29c1.088.207,2.176.405,3.267.567ZM81.667,93.1a1.633,1.633,0,0,1-3.267,0V91.55c.544.011,1.089.041,1.633.041s1.089-.029,1.633-.041Zm11.433,0a1.633,1.633,0,0,1-1.633-1.633v-.724c1.091-.163,2.179-.359,3.267-.567v1.29A1.633,1.633,0,0,1,93.1,93.1Z" fill="#fff"/>
    <path id="Shape-2" data-name="Shape" d="M5,29a1,1,0,0,0-1,1v1a1,1,0,0,0,2,0V30A1,1,0,0,0,5,29Z" transform="translate(0 19.333)" fill="#fff"/>
    <path id="Shape-3" data-name="Shape" d="M5,34a1,1,0,0,0-1,1v7a1,1,0,0,0,2,0V35A1,1,0,0,0,5,34Z" transform="translate(0 25.333)" fill="#fff"/>
    <path id="Shape-4" data-name="Shape" d="M43,29a1,1,0,0,0-1,1v1a1,1,0,0,0,2,0V30A1,1,0,0,0,43,29Z" transform="translate(27.517 19.333)" fill="#fff"/>
    <path id="Shape-5" data-name="Shape" d="M43,34a1,1,0,0,0-1,1v4a1,1,0,0,0,2,0V35A1,1,0,0,0,43,34Z" transform="translate(27.517 23.926)" fill="#fff"/>
    <path id="Shape-6" data-name="Shape" d="M16,44a1,1,0,0,0-1-1H13.618a4,4,0,1,0,0,6H15a1,1,0,0,0,0-2h-.142a3.592,3.592,0,0,0,0-2H15A1,1,0,0,0,16,44ZM9,46a2,2,0,1,1,2,2A2,2,0,0,1,9,46Z" transform="translate(0 30.692)" fill="#fff"/>
    <path id="Shape-7" data-name="Shape" d="M54,44a1,1,0,0,0-1-1H51.618a4,4,0,1,0,0,6H53a1,1,0,0,0,0-2h-.142a3.592,3.592,0,0,0,0-2H53A1,1,0,0,0,54,44Zm-7,2a2,2,0,1,1,2,2A2,2,0,0,1,47,46Z" transform="translate(38 30.692)" fill="#fff"/>
  </g>
</svg>
