<svg xmlns="http://www.w3.org/2000/svg" width="46.44" height="98" viewBox="0 0 46.44 98">
  <g id="Grupo_95" data-name="Grupo 95" transform="translate(-1462 -1135)">
    <path id="Trazado_1599" data-name="Trazado 1599" d="M360.856,146.66a1.916,1.916,0,1,0-.637,2.722,1.936,1.936,0,0,0,.637-2.722C360.785,146.555,360.925,146.764,360.856,146.66Z" transform="translate(1147.261 1017.095)"/>
    <path id="Trazado_1600" data-name="Trazado 1600" d="M216.331,410.534h13.193a1.916,1.916,0,0,0,0-3.832H216.331a1.916,1.916,0,0,0,0,3.832Z" transform="translate(1262.835 806.14)"/>
    <g id="Grupo_94" data-name="Grupo 94" transform="translate(1462 1135)">
      <path id="Trazado_1598" data-name="Trazado 1598" d="M181.128,14.992a1.934,1.934,0,0,0-.385-1.152l-6.016-7.988a1.914,1.914,0,0,0-1.529-.763h-6.8l2.124-1.674A1.914,1.914,0,1,0,166.153.41l-5.938,4.68H142.24a1.914,1.914,0,0,0-1.564.81l-5.637,7.988a1.937,1.937,0,0,0-.35,1.1V88.83a9.162,9.162,0,0,0,1.536,5.728A8.941,8.941,0,0,0,143.265,98h29.286a8.966,8.966,0,0,0,6.947-3.317,9.1,9.1,0,0,0,1.63-5.852V38.278a1.914,1.914,0,0,0-3.828,0v3.989h-5.379v-1.29a14.013,14.013,0,1,0-28.026,0v1.29h-5.379V16.907H177.3V21.44a1.914,1.914,0,0,0,3.828,0V14.992Zm-23.22,57.4a14.029,14.029,0,0,0,14.013-14.013V57.09H177.3V86.916H138.516V57.09h5.379v1.29A14.029,14.029,0,0,0,157.908,72.394Zm17.568,20.861a5.747,5.747,0,0,1-2.722.912q-.1,0-.2,0H143.265c-.068,0-.136,0-.2,0a5.744,5.744,0,0,1-2.721-.913,4.014,4.014,0,0,1-1.72-2.51H177.2a4.016,4.016,0,0,1-1.72,2.51ZM145.809,46.1a1.914,1.914,0,0,0,1.914-1.914v-3.2a10.185,10.185,0,1,1,20.369,0v3.2a1.914,1.914,0,0,0,1.914,1.914H177.3v7.166h-7.293a1.914,1.914,0,0,0-1.914,1.914v3.2a10.185,10.185,0,0,1-20.369,0v-3.2a1.914,1.914,0,0,0-1.914-1.914h-7.293V46.1ZM140.3,13.078l2.936-4.159h29.011l3.133,4.159Z" transform="translate(-134.688 0.001)"/>
      <path id="Trazado_1601" data-name="Trazado 1601" d="M9.281-49.636h.091a1.516,1.516,0,0,0,1.473-1.179L13.2-57.932l2.335,7.117a1.522,1.522,0,0,0,1.5,1.179h.091a1.6,1.6,0,0,0,1.519-1.224l3.264-9.2a2.267,2.267,0,0,0,.113-.612,1.272,1.272,0,0,0-1.292-1.269,1.368,1.368,0,0,0-1.337,1.065L17.056-53.6,14.7-60.856a1.456,1.456,0,0,0-1.405-1.088h-.159a1.456,1.456,0,0,0-1.405,1.088L9.395-53.6,7.083-60.856a1.4,1.4,0,0,0-1.337-1.088,1.283,1.283,0,0,0-1.337,1.269,2.277,2.277,0,0,0,.136.7L7.763-50.86A1.559,1.559,0,0,0,9.281-49.636Z" transform="translate(10.037 107.001)"/>
    </g>
  </g>
</svg>
