<svg xmlns="http://www.w3.org/2000/svg" width="138.509" height="138.508" viewBox="0 0 138.509 138.508">
  <g id="beer" transform="translate(0 71.673) rotate(-47)">
    <path id="Trazado_1592" data-name="Trazado 1592" d="M180.856,90.508a1.285,1.285,0,1,1-1.293,2.22,13.67,13.67,0,0,0-12.2-1.292,1.285,1.285,0,1,1-.911-2.4A16.334,16.334,0,0,1,180.856,90.508Z" transform="translate(-118.063 -70.7)" fill="#fff"/>
    <path id="Trazado_1593" data-name="Trazado 1593" d="M72.651,181.177a1.284,1.284,0,0,1,1.759.454,16.072,16.072,0,0,1,1.484,14.329,1.285,1.285,0,1,1-2.4-.922,13.416,13.416,0,0,0-1.3-12.1,1.284,1.284,0,0,1,.453-1.759Z" transform="translate(13.522 -142.756)" fill="#fff"/>
    <path id="Trazado_1594" data-name="Trazado 1594" d="M13.816,55.249c5.189-6.341,11.1-10.013,17.657-10.991l-7.161-3.434a1.934,1.934,0,0,1-1.059-1.288,1.837,1.837,0,0,1,.374-1.593c5.751-7.03,12.269-11.32,19.434-12.811l-5.2-3.482a1.9,1.9,0,0,1-.847-1.4,1.858,1.858,0,0,1,.59-1.517A44.127,44.127,0,0,1,55.482,8.186a2.041,2.041,0,0,1,2.524,1.268,1.9,1.9,0,0,1-1.338,2.392,39.135,39.135,0,0,0-14.46,8.027l14.928,10c8.289,5.55,20.62,4.8,27.488-1.664a2.1,2.1,0,0,1,2.856.008,1.844,1.844,0,0,1-.009,2.707c-6.863,6.463-7.655,18.059-1.767,25.852l5.3,7.025c.013.017.027.034.039.051l5.288,7c13.054-13.509,13.355-29.91.655-44.254a1.841,1.841,0,0,1,.1-2.57c4.345-4.2,8.664-8.875,9.568-15.71l.452-3.419-7.3-.856-.453,3.425c-.614,4.632-3.934,8.35-7.43,11.678a2.1,2.1,0,0,1-2.72.124,41.873,41.873,0,0,0-13.433-7.209A1.9,1.9,0,0,1,74.49,9.65a2.046,2.046,0,0,1,2.547-1.226,45.256,45.256,0,0,1,13.3,6.794c2.488-2.51,4.628-5.228,5.025-8.224l.7-5.321A2,2,0,0,1,98.314.012l11.307,1.327a2.048,2.048,0,0,1,1.346.724,1.842,1.842,0,0,1,.41,1.414l-.7,5.321c-.969,7.322-5.059,12.318-9.439,16.685,13.277,16.084,11.927,35-3.7,49.718a2.078,2.078,0,0,1-1.424.556q-.084,0-.169-.007a2.047,2.047,0,0,1-1.474-.794l-3.718-4.924c-1.58,6.76-6.139,12.909-13.614,18.331a2.093,2.093,0,0,1-1.228.394,2.133,2.133,0,0,1-.445-.047,2.007,2.007,0,0,1-1.353-.994l-3.67-6.785C69.409,87.122,65.506,92.706,58.757,97.6A2.093,2.093,0,0,1,57.529,98a2.128,2.128,0,0,1-.444-.047,2.006,2.006,0,0,1-1.353-.994L49.146,84.781c-.208-.385-.4-.779-.573-1.179a20.571,20.571,0,0,1-10.745,4.82l-13.714,1.6a2.138,2.138,0,0,1-.247.014,2.077,2.077,0,0,1-1.429-.562,1.855,1.855,0,0,1-.575-1.589l1.749-13.306a17.491,17.491,0,0,1,5.037-9.718c-.414-.162-.822-.337-1.22-.528L14.5,58.13a1.933,1.933,0,0,1-1.058-1.288A1.839,1.839,0,0,1,13.816,55.249ZM54.806,33l-6.89-4.616c-7.145.282-13.706,3.674-19.539,10.1L41.7,44.87a19.074,19.074,0,0,0,8.073,1.784A19.7,19.7,0,0,1,52.8,45.606l.132-1a19.82,19.82,0,0,1,4.62-10.024A24.232,24.232,0,0,1,54.806,33ZM69.78,71.317l6.794,12.562c6.831-5.491,10.44-11.667,10.744-18.39L82.421,59a22.338,22.338,0,0,1-1.714-2.636,24.089,24.089,0,0,1-9.65,4.234c-.667.125-1.339.209-2.013.287A16.211,16.211,0,0,1,67.893,63.9a16.226,16.226,0,0,0,1.887,7.421ZM67.1,57.26l1.988-.232A19.784,19.784,0,0,0,79.076,52.7a24.36,24.36,0,0,1,.44-16.972,28.394,28.394,0,0,1-9.635,1.656,28.782,28.782,0,0,1-8.427-1.253,16.49,16.49,0,0,0-4.517,8.949L55.15,58.653l11.908-1.388Zm-15.634,22.2c.008.033.013.065.019.1a12.711,12.711,0,0,0,1.258,3.473L58.19,93.108c7.158-5.871,9.75-12.5,7.921-20.187a19.282,19.282,0,0,1-1.634-4.265A20.619,20.619,0,0,1,52.31,74.785l-.983.114a13.959,13.959,0,0,0,.137,4.564Zm.354-8.478A16.681,16.681,0,0,0,64.039,62.65c.02-.04.039-.08.062-.119.2-.37.371-.746.529-1.127L53.072,62.752a2.135,2.135,0,0,1-.247.014A2.078,2.078,0,0,1,51.4,62.2a1.854,1.854,0,0,1-.575-1.589l1.421-10.8c-5.2,1.96-9.5,6.712-10.146,11.6l-1.429,10.87Zm-24.2,4.066-1.429,10.87,11.143-1.3a16.631,16.631,0,0,0,10.016-5.287,17.583,17.583,0,0,1-.131-3.958l-8.63,1.005a2.137,2.137,0,0,1-.246.014,2.077,2.077,0,0,1-1.429-.562,1.855,1.855,0,0,1-.575-1.589l1.065-8.1q-.752.053-1.5.054a20.808,20.808,0,0,1-2.69-.175,14.4,14.4,0,0,0-5.593,9.028Zm1.632-14.136a15.822,15.822,0,0,0,8.664,1.334l.172-1.309A18.005,18.005,0,0,1,44.571,49.9a22.169,22.169,0,0,1-4.549-1.543c-8.172-1.724-15.211.71-21.447,7.439Z" transform="translate(-13.392 0.003)" fill="#fff"/>
    <path id="Trazado_1595" data-name="Trazado 1595" d="M226.212,37.668h-.007a1.288,1.288,0,1,1,.007,0Z" transform="translate(-172.89 -30.59)" fill="#fff"/>
  </g>
</svg>
