<svg xmlns="http://www.w3.org/2000/svg" width="80.909" height="81.503" viewBox="0 0 80.909 81.503">
  <defs>
    <style>
      .cls-1 {
        fill: #2d3277;
      }

      .cls-2 {
        fill: #009ee3;
      }

      .cls-3 {
        fill: #fff;
      }
    </style>
  </defs>
  <g id="Grupo_419" data-name="Grupo 419" transform="translate(-2353 179.482)">
    <g id="Grupo_418" data-name="Grupo 418" transform="translate(-6.884 -7)">
      <path id="Trazado_149" data-name="Trazado 149" class="cls-1" d="M326.891,173.856c0-9.243-11.485-16.778-25.652-16.778s-25.651,7.535-25.651,16.778c0,.239,0,.9,0,.983,0,9.806,10.038,17.748,25.65,17.748,15.709,0,25.655-7.94,25.655-17.746Z" transform="translate(2099.299 -329.56)"/>
      <path id="Trazado_150" data-name="Trazado 150" class="cls-2" d="M327.6,175.539c0,8.714-11.043,15.779-24.665,15.779s-24.665-7.064-24.665-15.779,11.042-15.779,24.665-15.779S327.6,166.824,327.6,175.539Z" transform="translate(2097.604 -331.25)"/>
      <path id="Trazado_151" data-name="Trazado 151" class="cls-3" d="M322.6,179.247c-.013.025-.259.279-.1.484a3.084,3.084,0,0,0,2.807.51,8.145,8.145,0,0,0,2.55-1.614,10.214,10.214,0,0,1,2.912-1.857,3.323,3.323,0,0,1,2.123-.055,6.522,6.522,0,0,1,1.935,1.129c1.688,1.269,8.474,7.192,9.647,8.216a58.545,58.545,0,0,1,10.844-3.491,13.439,13.439,0,0,0-5.15-8.1c-3.909,1.642-8.687,2.5-13.359.217a12.919,12.919,0,0,0-5.047-1.147c-3.707.086-5.313,1.69-7.012,3.389Z" transform="translate(2069.756 -339.937)"/>
      <path id="Trazado_152" data-name="Trazado 152" class="cls-3" d="M316.665,187.406c-.079-.071-7.979-6.984-9.769-8.329a4.378,4.378,0,0,0-2.216-1.052,3,3,0,0,0-1.054.1,9.534,9.534,0,0,0-2.888,1.721,8.255,8.255,0,0,1-2.82,1.744,4.565,4.565,0,0,1-3.108-.467,1.375,1.375,0,0,1-.515-.565.955.955,0,0,1,.264-1.032l2.18-2.358c.253-.253.509-.506.77-.756a14.1,14.1,0,0,0-1.987.447,8.658,8.658,0,0,1-2.318.433,22.047,22.047,0,0,1-2.366-.37,35.343,35.343,0,0,1-6.29-2.274,13.941,13.941,0,0,0-5.771,8.369c.445.118,1.163.331,1.464.4,7.014,1.559,9.2,3.165,9.594,3.5a2.321,2.321,0,0,1,3.639.214,2.65,2.65,0,0,1,1.671-.588,3.117,3.117,0,0,1,1,.176A2.3,2.3,0,0,1,297.56,188a2.341,2.341,0,0,1,.976-.207,2.941,2.941,0,0,1,1.166.258,2.491,2.491,0,0,1,1.377,2.783,2.326,2.326,0,0,1,.279-.015,2.777,2.777,0,0,1,2.447,4.094,4.417,4.417,0,0,0,2.414.647,1.548,1.548,0,0,0,1.131-.492c.069-.1.143-.214.075-.3l-1.979-2.2s-.326-.308-.218-.428.313.054.456.173c1.007.841,2.237,2.11,2.237,2.11.02.014.1.175.556.256a2.056,2.056,0,0,0,1.564-.365,2.362,2.362,0,0,0,.343-.351.141.141,0,0,1-.022.017,1.052,1.052,0,0,0-.056-1.3L308,190.083s-.331-.305-.218-.429c.1-.106.313.055.458.174.732.612,1.765,1.649,2.756,2.619a1.882,1.882,0,0,0,2.217-.077,1.589,1.589,0,0,0,.82-1.448,1.651,1.651,0,0,0-.488-.963l-3.156-3.173s-.333-.285-.215-.429c.1-.121.313.053.455.172,1.006.841,3.727,3.336,3.727,3.336a1.915,1.915,0,0,0,2.141-.043,1.43,1.43,0,0,0,.7-1.131A1.67,1.67,0,0,0,316.665,187.406Z" transform="translate(2097.287 -340.638)"/>
      <path id="Trazado_153" data-name="Trazado 153" class="cls-3" d="M320.251,212.081a6.945,6.945,0,0,0-1.095.242c-.039-.026.03-.222.076-.336s.691-2.052-.879-2.725a1.851,1.851,0,0,0-2.189.327c-.066.069-.1.064-.1-.024a1.733,1.733,0,0,0-1.218-1.61,2.375,2.375,0,0,0-2.678.955,1.716,1.716,0,1,0-.51,1.459c.01.009.014.025.009.058a2.263,2.263,0,0,0,1.414,2.6,1.686,1.686,0,0,0,1.66-.256c.136-.1.159-.056.139.072a1.616,1.616,0,0,0,1.209,1.734,1.535,1.535,0,0,0,1.8-.334c.154-.14.2-.118.2.1a2.165,2.165,0,1,0,2.164-2.263Z" transform="translate(2078.394 -361.291)"/>
      <path id="Trazado_154" data-name="Trazado 154" class="cls-1" d="M316.721,184.476c-2.433-2.123-8.058-7.013-9.581-8.157a6.7,6.7,0,0,0-1.985-1.156,3.305,3.305,0,0,0-.975-.152,4.092,4.092,0,0,0-1.238.209,10.119,10.119,0,0,0-2.914,1.845l-.049.038a8.042,8.042,0,0,1-2.488,1.584,4.228,4.228,0,0,1-.922.1,2.363,2.363,0,0,1-1.73-.557c-.043-.055-.016-.144.085-.272l.013-.017,2.141-2.307c1.677-1.677,3.261-3.26,6.906-3.343.06,0,.122,0,.182,0a12.922,12.922,0,0,1,4.792,1.134,14.831,14.831,0,0,0,6.531,1.567,17.062,17.062,0,0,0,7.17-1.718c-.279-.235-.569-.463-.867-.686a15.782,15.782,0,0,1-6.3,1.43,13.891,13.891,0,0,1-6.112-1.47,13.759,13.759,0,0,0-5.216-1.233l-.206,0a9.057,9.057,0,0,0-5.946,2.112,11.777,11.777,0,0,0-2.968.541,8,8,0,0,1-2.091.4c-.268,0-.75-.025-.794-.026a40.73,40.73,0,0,1-7.519-2.083c-.306.217-.6.44-.888.668a37.17,37.17,0,0,0,8.15,2.356c.335.022.692.06,1.049.061a8.916,8.916,0,0,0,2.36-.439c.454-.128.955-.266,1.483-.367q-.211.208-.422.419l-2.175,2.353a1.094,1.094,0,0,0-.3,1.2,1.519,1.519,0,0,0,.572.634,4.526,4.526,0,0,0,2.308.586,4.218,4.218,0,0,0,.921-.1,8.341,8.341,0,0,0,2.881-1.772,9.573,9.573,0,0,1,2.832-1.695,3.2,3.2,0,0,1,.789-.108,1.688,1.688,0,0,1,.2.011,4.255,4.255,0,0,1,2.143,1.023c1.785,1.341,9.686,8.253,9.763,8.321a1.519,1.519,0,0,1,.474,1.161,1.266,1.266,0,0,1-.631,1.009,1.923,1.923,0,0,1-1.037.323,1.711,1.711,0,0,1-.915-.265c-.029-.024-2.736-2.506-3.732-3.34a.835.835,0,0,0-.469-.249.256.256,0,0,0-.207.1c-.157.193.019.46.226.637l3.162,3.178a1.5,1.5,0,0,1,.437.857,1.444,1.444,0,0,1-.75,1.311,2.042,2.042,0,0,1-1.121.37,1.63,1.63,0,0,1-.9-.273l-.454-.447c-.829-.816-1.685-1.66-2.311-2.182a.845.845,0,0,0-.472-.245.269.269,0,0,0-.2.085c-.071.079-.121.222.057.459a1.6,1.6,0,0,0,.16.178l2.307,2.592a.884.884,0,0,1,.052,1.106l-.082.1a2.338,2.338,0,0,1-.214.207,1.848,1.848,0,0,1-1.128.357,1.768,1.768,0,0,1-.312-.027.783.783,0,0,1-.455-.191l-.028-.03c-.126-.13-1.289-1.317-2.252-2.12a.793.793,0,0,0-.449-.241.273.273,0,0,0-.208.093c-.191.209.1.52.217.634l1.968,2.17a.446.446,0,0,1-.075.133c-.071.1-.309.337-1.023.426a1.98,1.98,0,0,1-.261.016,4.493,4.493,0,0,1-1.926-.572,2.935,2.935,0,0,0-2.654-4.185l-.106,0a2.6,2.6,0,0,0-1.489-2.756,3.085,3.085,0,0,0-1.227-.271,2.5,2.5,0,0,0-.9.163,2.468,2.468,0,0,0-1.437-1.221,3.221,3.221,0,0,0-1.054-.186,2.775,2.775,0,0,0-1.64.525,2.473,2.473,0,0,0-3.685-.207c-.612-.467-3.042-2.011-9.546-3.488-.315-.072-1.038-.279-1.481-.409a10.543,10.543,0,0,0-.166,1.068s1.2.287,1.436.34c6.644,1.476,8.839,3.01,9.21,3.3a2.489,2.489,0,0,0,2.3,3.447,2.551,2.551,0,0,0,.457-.041,2.9,2.9,0,0,0,1.878,2.169,2.47,2.47,0,0,0,.887.172,2.29,2.29,0,0,0,.567-.071,2.889,2.889,0,0,0,2.522,1.648,2.2,2.2,0,0,0,.76-.136,2.931,2.931,0,0,0,4.816.93,5.532,5.532,0,0,0,2.485.741,3.184,3.184,0,0,0,.376-.024,2.277,2.277,0,0,0,1.686-.825,1.221,1.221,0,0,0,.1-.168,2.86,2.86,0,0,0,.8.124,2.681,2.681,0,0,0,1.607-.575,2.213,2.213,0,0,0,.947-1.378c0-.007,0-.013,0-.02a2.624,2.624,0,0,0,.537.056,2.985,2.985,0,0,0,1.65-.524,2.381,2.381,0,0,0,1.184-2.121,2.647,2.647,0,0,0,.544.057,2.853,2.853,0,0,0,1.546-.476,2.26,2.26,0,0,0,1.074-1.749,2.359,2.359,0,0,0-.341-1.412,63.861,63.861,0,0,1,10.249-3.209,10.572,10.572,0,0,0-.143-1.063A58.791,58.791,0,0,0,316.721,184.476ZM301.108,193.5a1.994,1.994,0,0,1-2.006-1.917c0-.092-.012-.336-.22-.336a.384.384,0,0,0-.244.128,1.413,1.413,0,0,1-.986.446,1.72,1.72,0,0,1-.65-.142c-1.145-.463-1.161-1.25-1.114-1.566a.287.287,0,0,0-.041-.241l-.07-.064h-.071a.349.349,0,0,0-.2.081,1.67,1.67,0,0,1-.972.346,1.5,1.5,0,0,1-.543-.106,2.1,2.1,0,0,1-1.315-2.438.205.205,0,0,0-.065-.2l-.107-.088-.1.1a1.551,1.551,0,0,1-1.082.439,1.565,1.565,0,1,1,1.547-1.764l.054.42.231-.356a2.175,2.175,0,0,1,2.5-.89,1.582,1.582,0,0,1,1.109,1.474c.017.2.161.214.19.214a.254.254,0,0,0,.181-.095,1.58,1.58,0,0,1,1.153-.486,2.223,2.223,0,0,1,.863.195c1.473.632.805,2.5.8,2.524-.127.31-.132.448-.013.527l.058.027h.043a1.042,1.042,0,0,0,.286-.075,2.523,2.523,0,0,1,.786-.172h0a2.009,2.009,0,1,1,0,4.019Z" transform="translate(2097.537 -338.536)"/>
    </g>
    <g id="Grupo_417" data-name="Grupo 417" transform="translate(-6.078 -7)">
      <path id="Trazado_155" data-name="Trazado 155" class="cls-1" d="M634.206,170.584a5.978,5.978,0,0,0-8.433,0,6.8,6.8,0,0,0,0,8.241,6.042,6.042,0,0,0,8.433,0,6.808,6.808,0,0,0,0-8.241Zm-2.294,6.655a2.539,2.539,0,0,1-3.869,0,5.09,5.09,0,0,1,0-5.08,2.548,2.548,0,0,1,3.869,0,5.123,5.123,0,0,1,0,5.08Z" transform="translate(1804.392 -291.978)"/>
      <path id="Trazado_156" data-name="Trazado 156" class="cls-1" d="M572.731,169.7a7.029,7.029,0,0,0-3.223-.717q-2.787,0-3.934,1.454a4.227,4.227,0,0,0-.813,2.373h2.777a2.083,2.083,0,0,1,.41-1.01,1.831,1.831,0,0,1,1.461-.5,2.986,2.986,0,0,1,1.4.258.968.968,0,0,1,.476.933.866.866,0,0,1-.621.819,4.556,4.556,0,0,1-1.15.252l-.984.121a7.025,7.025,0,0,0-2.543.707,3.132,3.132,0,0,0-1.577,2.938,3.03,3.03,0,0,0,.98,2.417,3.887,3.887,0,0,0,2.484.854c6.281.281,6.21-3.31,6.268-4.056v-4.132A2.754,2.754,0,0,0,572.731,169.7Zm-1.459,6.27a2.306,2.306,0,0,1-.825,1.989,3,3,0,0,1-1.736.546,1.584,1.584,0,0,1-1.011-.328,1.279,1.279,0,0,1-.414-1.066,1.315,1.315,0,0,1,.678-1.221,4.3,4.3,0,0,1,1.324-.392l.656-.122a4.781,4.781,0,0,0,.771-.2,2.911,2.911,0,0,0,.557-.276Z" transform="translate(1842.204 -292.068)"/>
      <path id="Trazado_157" data-name="Trazado 157" class="cls-1" d="M538.7,171.512a1.871,1.871,0,0,1,1.586.665,2.467,2.467,0,0,1,.437,1.108h3.1a4.239,4.239,0,0,0-1.64-3.272,6.318,6.318,0,0,0-3.564-.926,5.2,5.2,0,0,0-4.015,1.571,6.219,6.219,0,0,0-1.456,4.394,6.124,6.124,0,0,0,1.316,4.071,5.068,5.068,0,0,0,4.109,1.57,4.954,4.954,0,0,0,4.218-1.883,4.643,4.643,0,0,0,1-2.476H540.7a2.608,2.608,0,0,1-.542,1.41,1.857,1.857,0,0,1-1.51.542,2.017,2.017,0,0,1-2.043-1.37,5.241,5.241,0,0,1-.3-1.936,5.731,5.731,0,0,1,.3-2.029A2.081,2.081,0,0,1,538.7,171.512Z" transform="translate(1861.915 -292.13)"/>
      <path id="Trazado_158" data-name="Trazado 158" class="cls-1" d="M520.674,169.086c-6.364,0-5.987,5.635-5.987,5.635v5.723h2.888v-5.368a4.413,4.413,0,0,1,.331-1.954,2.38,2.38,0,0,1,2.326-1.127c.086,0,.2,0,.342.011s.3.02.484.041v-2.939c-.129-.008-.211-.012-.248-.016S520.728,169.086,520.674,169.086Z" transform="translate(1873.555 -292.13)"/>
      <path id="Trazado_159" data-name="Trazado 159" class="cls-1" d="M489.212,177.453a2.126,2.126,0,0,1-.4.437,2.469,2.469,0,0,1-1.615.438,2.739,2.739,0,0,1-1.537-.37,2.6,2.6,0,0,1-1.169-2.293h7.991a14.536,14.536,0,0,0-.1-2.177,5.406,5.406,0,0,0-.873-2.269,4.48,4.48,0,0,0-1.9-1.624,6.266,6.266,0,0,0-2.578-.513,5.289,5.289,0,0,0-3.923,1.521,5.942,5.942,0,0,0-1.514,4.372,5.316,5.316,0,0,0,1.676,4.393,5.983,5.983,0,0,0,3.864,1.35,5.328,5.328,0,0,0,4.127-1.6,3.883,3.883,0,0,0,1-1.665Zm-3.882-5.377a2.281,2.281,0,0,1,1.713-.627,2.511,2.511,0,0,1,1.7.592,2.39,2.39,0,0,1,.763,1.732h-4.941A2.977,2.977,0,0,1,485.33,172.076Z" transform="translate(1894.409 -292.129)"/>
      <path id="Trazado_160" data-name="Trazado 160" class="cls-1" d="M451.549,180.378h-2.638v-6.643a1.854,1.854,0,0,0-1.94-2.051,1.944,1.944,0,0,0-2,2.051v6.643h-2.641v-6.643a1.836,1.836,0,0,0-1.919-2.051,1.934,1.934,0,0,0-2,2.051v6.643h-2.64V173.8a4.528,4.528,0,0,1,4.641-4.817,4.063,4.063,0,0,1,3.28,1.53,4.2,4.2,0,0,1,3.279-1.53c2.88,0,4.578,1.99,4.578,4.817Z" transform="translate(1923.307 -292.065)"/>
      <path id="Trazado_161" data-name="Trazado 161" class="cls-1" d="M603.822,159.676s-2.909-.31-2.909,2.026l0,3.094a3.468,3.468,0,0,0-1.257-1.213,3.535,3.535,0,0,0-1.772-.439,4.208,4.208,0,0,0-3.456,1.611,7.09,7.09,0,0,0-1.293,4.493,5.975,5.975,0,0,0,1.313,3.992,5.563,5.563,0,0,0,4.118,1.49c5.318,0,5.256-4.56,5.256-4.56Zm-3.464,11.8a2.116,2.116,0,0,1-1.851.906,2.025,2.025,0,0,1-1.817-.911,4.652,4.652,0,0,1-.6-2.506,4.4,4.4,0,0,1,.588-2.36,2.013,2.013,0,0,1,1.846-.952,2.193,2.193,0,0,1,1.45.523,3.777,3.777,0,0,1,1.016,2.954A4,4,0,0,1,600.358,171.474Z" transform="translate(1824.094 -286.189)"/>
      <path id="Trazado_162" data-name="Trazado 162" class="cls-2" d="M487.915,226.088a1.357,1.357,0,0,1-.426,1,1.392,1.392,0,0,1-1.018.419h-1.442V217.477a4.627,4.627,0,0,1,1.74-4,5.8,5.8,0,0,1,3.778-1.068,5.065,5.065,0,0,1,3.781,1.563,6.17,6.17,0,0,1,1.356,4.175,6.758,6.758,0,0,1-1.273,4.273,4,4,0,0,1-3.269,1.592,4.388,4.388,0,0,1-1.867-.375,3.173,3.173,0,0,1-1.358-1.3Zm4.84-7.814a4.233,4.233,0,0,0-.638-2.514,2.122,2.122,0,0,0-1.825-.879,2.087,2.087,0,0,0-1.785.879,4.25,4.25,0,0,0-.592,2.514,3.765,3.765,0,0,0,.637,2.388,2.113,2.113,0,0,0,1.825.88,2.032,2.032,0,0,0,1.74-.88,3.981,3.981,0,0,0,.638-2.388" transform="translate(1892.252 -319.445)"/>
      <path id="Trazado_163" data-name="Trazado 163" class="cls-2" d="M552.7,223.018v-.709a3.2,3.2,0,0,1-2.023,1.464,4.131,4.131,0,0,1-2.521-.211A4.682,4.682,0,0,1,546,221.7a6.433,6.433,0,0,1-.9-3.582,6.922,6.922,0,0,1,1.187-4.206,4.561,4.561,0,0,1,3.817-1.612,5.292,5.292,0,0,1,3.711,1.089,4.656,4.656,0,0,1,1.709,4.017v5.9a4.928,4.928,0,0,1-5.42,5.065,4.752,4.752,0,0,1-4.753-3.6H548.4a2.154,2.154,0,0,0,1.023.9,2.127,2.127,0,0,0,1.373.168,2.279,2.279,0,0,0,1.254-.815,3.434,3.434,0,0,0,.645-2.011m-4.754-4.812q0,2.887,1.668,3.2a2.277,2.277,0,0,0,2.46-.776,3.12,3.12,0,0,0,.541-1.443,6.107,6.107,0,0,0,.022-1.946,3.878,3.878,0,0,0-.688-1.718,1.831,1.831,0,0,0-1.584-.753,1.924,1.924,0,0,0-1.918,1.045,5.451,5.451,0,0,0-.5,2.388" transform="translate(1854.373 -319.375)"/>
      <path id="Trazado_164" data-name="Trazado 164" class="cls-2" d="M524.226,213.243a7.05,7.05,0,0,0-3.222-.716q-2.791,0-3.936,1.453a4.229,4.229,0,0,0-.812,2.374h2.779a2.063,2.063,0,0,1,.409-1.01,1.831,1.831,0,0,1,1.461-.505,3,3,0,0,1,1.4.258.969.969,0,0,1,.476.934.866.866,0,0,1-.62.819,4.571,4.571,0,0,1-1.151.252l-.984.12a7.025,7.025,0,0,0-2.541.708,3.129,3.129,0,0,0-1.578,2.937,3.029,3.029,0,0,0,.98,2.418,3.889,3.889,0,0,0,2.483.854c6.279.281,6.209-3.31,6.266-4.056v-4.133a2.75,2.75,0,0,0-1.408-2.706m-1.46,6.271a2.3,2.3,0,0,1-.823,1.989,3,3,0,0,1-1.736.545,1.581,1.581,0,0,1-1.01-.329,1.276,1.276,0,0,1-.416-1.066,1.315,1.315,0,0,1,.68-1.221,4.281,4.281,0,0,1,1.323-.391l.655-.122a4.664,4.664,0,0,0,.77-.2,2.812,2.812,0,0,0,.557-.276Z" transform="translate(1872.785 -319.519)"/>
      <path id="Trazado_165" data-name="Trazado 165" class="cls-2" d="M586.119,213.959a5.98,5.98,0,0,0-8.434,0,6.8,6.8,0,0,0,0,8.24,6.048,6.048,0,0,0,8.434,0,6.816,6.816,0,0,0,0-8.24m-2.3,6.653a2.537,2.537,0,0,1-3.867,0,5.081,5.081,0,0,1,0-5.078,2.547,2.547,0,0,1,3.867,0,5.117,5.117,0,0,1,0,5.078" transform="translate(1834.71 -319.324)"/>
    </g>
  </g>
</svg>
