<svg xmlns="http://www.w3.org/2000/svg" width="70" height="91.641" viewBox="0 0 70 91.641">
  <defs>
    <style>
      .cls-1 {
        font-size: 25px;
        font-family: BebasNeueRegular, Bebas Neue;
      }
    </style>
  </defs>
  <g id="Grupo_424" data-name="Grupo 424" transform="translate(-2523 184)">
    <g id="wallet" transform="translate(2520.992 -184)">
      <g id="Grupo_421" data-name="Grupo 421" transform="translate(8.008 0)">
        <g id="Grupo_420" data-name="Grupo 420" transform="translate(0)">
          <path id="Trazado_211" data-name="Trazado 211" d="M62.6,34.138h-.872V26.282a3.689,3.689,0,0,0-1.564-3.014V22.2a2.817,2.817,0,0,0-2.814-2.814H56.7l2.492-3.656a2.693,2.693,0,0,0-.708-3.737L41.574.468a2.69,2.69,0,0,0-3.737.708L23.243,22.591H19.182l.98-9.918a.294.294,0,0,1,.185-.247,6.314,6.314,0,0,0,3.08-2.5.292.292,0,0,1,.276-.13l6.369.629a.83.83,0,0,0,.163-1.653l-6.369-.629a1.944,1.944,0,0,0-1.841.891,4.642,4.642,0,0,1-2.265,1.84,1.941,1.941,0,0,0-1.252,1.638l-1,10.081H16.454L18,6.9a1.029,1.029,0,0,1,1.125-.923L32,7.253A.83.83,0,1,0,32.164,5.6L19.292,4.328a2.693,2.693,0,0,0-2.941,2.412L15.1,19.384H12.975A2.817,2.817,0,0,0,10.161,22.2v.73a3.7,3.7,0,0,0-2.153,3.354v28.31A3.7,3.7,0,0,0,11.7,58.282H58.037a3.7,3.7,0,0,0,3.691-3.691V46.735H62.6a1.869,1.869,0,0,0,1.867-1.867V36A1.869,1.869,0,0,0,62.6,34.138ZM57.35,21.045h0A1.154,1.154,0,0,1,58.5,22.2v.423a3.7,3.7,0,0,0-.466-.03H54.513l1.053-1.546ZM39.209,2.111a1.023,1.023,0,0,1,.659-.432,1.044,1.044,0,0,1,.194-.018,1.022,1.022,0,0,1,.577.179L57.547,13.363a1.03,1.03,0,0,1,.271,1.43l-5.314,7.8H51.228l2.606-3.823a1.941,1.941,0,0,0,.091-2.059,4.641,4.641,0,0,1-.556-2.865,1.942,1.942,0,0,0-.84-1.864L43.763,6.006a1.942,1.942,0,0,0-2.042-.1,4.642,4.642,0,0,1-2.869.53,1.966,1.966,0,0,0-1.884.837L26.529,22.591H25.253Zm.366,14.1a6.853,6.853,0,0,0-6.827,6.376H28.539l9.8-14.382h0a.3.3,0,0,1,.243-.131l.038,0a6.314,6.314,0,0,0,3.9-.721.293.293,0,0,1,.3.019l8.765,5.973a.294.294,0,0,1,.129.276,6.312,6.312,0,0,0,.757,3.9.3.3,0,0,1-.016.308l-3.243,4.759H46.4A6.853,6.853,0,0,0,39.575,16.214Zm5.162,6.376H34.413a5.183,5.183,0,0,1,10.324,0ZM11.822,22.2a1.154,1.154,0,0,1,1.153-1.153h1.963l-.153,1.546H11.822ZM9.669,26.282a2.033,2.033,0,0,1,2.03-2.03H58.037a2.032,2.032,0,0,1,2.03,2.03v2.3H9.669Zm50.4,28.31a2.032,2.032,0,0,1-2.03,2.03H11.7a2.033,2.033,0,0,1-2.03-2.03v-2.3h4.478a.83.83,0,0,0,0-1.661H9.669V30.247h50.4v3.891h-7.9A6.306,6.306,0,0,0,46.5,37.687l-.011.021c-.009.018-.016.036-.025.054a6.263,6.263,0,0,0-.314.8v0a6.3,6.3,0,0,0,6.016,8.167h7.9v3.891h-40.6a.83.83,0,0,0,0,1.661h40.6Zm2.739-9.723a.206.206,0,0,1-.206.206H52.171a4.642,4.642,0,0,1-4.077-2.429q-.054-.1-.1-.2-.1-.2-.176-.416a4.642,4.642,0,0,1,0-3.186q.078-.213.176-.416.049-.1.1-.2A4.642,4.642,0,0,1,52.171,35.8H62.6a.206.206,0,0,1,.206.206v8.863Z" transform="translate(-8.008 0)"/>
        </g>
      </g>
      <g id="Grupo_423" data-name="Grupo 423" transform="translate(48.996 37.067)">
        <g id="Grupo_422" data-name="Grupo 422">
          <path id="Trazado_212" data-name="Trazado 212" d="M371.45,325.627A3.369,3.369,0,1,0,374.82,329,3.373,3.373,0,0,0,371.45,325.627Zm0,5.078A1.708,1.708,0,1,1,373.159,329,1.71,1.71,0,0,1,371.45,330.7Z" transform="translate(-368.081 -325.627)"/>
        </g>
      </g>
    </g>
    <text id="EFECTIVO" class="cls-1" transform="translate(2523 -98.359)"><tspan x="0" y="0">EFECTIVO</tspan></text>
  </g>
</svg>
