<svg xmlns="http://www.w3.org/2000/svg" width="136.119" height="92.423" viewBox="0 0 136.119 92.423">
  <g id="Grupo_9" data-name="Grupo 9" transform="translate(-340.839 -138.411)">
    <g id="Grupo_1" data-name="Grupo 1" transform="translate(340.839 210.519)">
      <path id="Trazado_1" data-name="Trazado 1" d="M343.78,245.83l4.671,11.994,4.881-12.865L358,257.824l4.962-11.994h2.941l-8.02,19.083L353.274,252.2l-4.811,12.726-7.624-19.094Z" transform="translate(-340.839 -244.609)" fill="#161615"/>
      <path id="Trazado_2" data-name="Trazado 2" d="M393.218,259.3h-7.682l-2,4.358h-2.917l8.879-19.072,8.565,19.072H395.1Zm-1.1-2.545-2.662-6.1-2.789,6.1Z" transform="translate(-353.567 -244.489)" fill="#161615"/>
      <path id="Trazado_3" data-name="Trazado 3" d="M417.177,246.24v15.4h5.276v2.545H414.47V246.24Z" transform="translate(-364.398 -245.019)" fill="#161615"/>
      <path id="Trazado_4" data-name="Trazado 4" d="M434.888,263.61V244.445l13.085,13.691V245.666h2.708V264.7L437.6,251.046V263.61Z" transform="translate(-370.931 -244.445)" fill="#161615"/>
      <path id="Trazado_5" data-name="Trazado 5" d="M472.043,246.24v10.809a5.947,5.947,0,0,0,.755,3.382,4.041,4.041,0,0,0,6.357,0,5.845,5.845,0,0,0,.755-3.382V246.24h2.708v11.553a6.463,6.463,0,0,1-1.767,4.672,6.833,6.833,0,0,1-9.75,0,6.46,6.46,0,0,1-1.767-4.672V246.24Z" transform="translate(-381.952 -245.019)" fill="#161615"/>
      <path id="Trazado_6" data-name="Trazado 6" d="M509.817,248.749l-2.2,1.3a3.783,3.783,0,0,0-1.174-1.395,3.119,3.119,0,0,0-3.37.268,1.978,1.978,0,0,0-.744,1.58q0,1.313,1.952,2.114l1.79.732a7.648,7.648,0,0,1,3.2,2.156,4.858,4.858,0,0,1,1.011,3.121,5.484,5.484,0,0,1-1.65,4.091,5.663,5.663,0,0,1-4.126,1.627,5.518,5.518,0,0,1-3.859-1.383,6.369,6.369,0,0,1-1.871-3.893l2.743-.6a4.651,4.651,0,0,0,.651,2.185,3.092,3.092,0,0,0,4.543.314,2.934,2.934,0,0,0,.837-2.15,3.043,3.043,0,0,0-.145-.959,2.434,2.434,0,0,0-.454-.8,3.628,3.628,0,0,0-.8-.686,7.715,7.715,0,0,0-1.162-.609l-1.731-.722q-3.684-1.557-3.684-4.556a4.32,4.32,0,0,1,1.546-3.382,5.584,5.584,0,0,1,3.847-1.371A5.371,5.371,0,0,1,509.817,248.749Z" transform="translate(-391.372 -244.855)" fill="#161615"/>
      <path id="Trazado_7" data-name="Trazado 7" d="M535.123,248.749l-2.2,1.3a3.789,3.789,0,0,0-1.174-1.395,3.119,3.119,0,0,0-3.37.268,1.98,1.98,0,0,0-.743,1.58q0,1.313,1.952,2.114l1.789.732a7.65,7.65,0,0,1,3.2,2.156,4.858,4.858,0,0,1,1.011,3.121,5.484,5.484,0,0,1-1.65,4.091,5.662,5.662,0,0,1-4.125,1.627,5.517,5.517,0,0,1-3.859-1.383,6.362,6.362,0,0,1-1.871-3.893l2.743-.6a4.658,4.658,0,0,0,.651,2.185,3.093,3.093,0,0,0,4.544.314,2.936,2.936,0,0,0,.836-2.15,3.023,3.023,0,0,0-.145-.959,2.422,2.422,0,0,0-.454-.8,3.606,3.606,0,0,0-.8-.686,7.72,7.72,0,0,0-1.162-.609l-1.731-.722q-3.685-1.557-3.684-4.556a4.321,4.321,0,0,1,1.545-3.382,5.587,5.587,0,0,1,3.847-1.371A5.371,5.371,0,0,1,535.123,248.749Z" transform="translate(-399.469 -244.855)" fill="#161615"/>
    </g>
    <g id="Grupo_6" data-name="Grupo 6" transform="translate(378.532 138.411)">
      <g id="Grupo_2" data-name="Grupo 2" transform="translate(8.237 8.237)">
        <circle id="Elipse_1" data-name="Elipse 1" cx="24.307" cy="24.307" r="24.307" fill="#161615"/>
      </g>
      <g id="Grupo_3" data-name="Grupo 3" transform="translate(15.513 18.971)">
        <path id="Trazado_8" data-name="Trazado 8" d="M446.82,187.042l6.024-11.549-6.1-.017-3.047,5.681-7.321-13.783-3.1,5.845h0l-4.217,7.939L426,175.475l-6.1.017,6.025,11.55h0l.038.073,3.106,5.955v0l7.3-13.93,4.153,7.923h0l.012.023,3.136,5.984h0l3.137-6.013.008-.015Z" transform="translate(-419.341 -166.648)" fill="#f50000"/>
        <path id="Trazado_9" data-name="Trazado 9" d="M428.847,193.541l-.04-.078-.042.078-.263-.658-9.425-18.069,6.867-.02,2.842,5.3,7.323-13.787,7.323,13.786,2.842-5.3,6.866.02-9.728,18.65-7.3-13.931-7,13.351Zm7.262-15.474,7.3,13.929,2.837-5.437.309.142-.3-.158,5.766-11.053-5.34-.016-3.251,6.063-7.32-13.78-7.32,13.781-3.251-6.063-5.34.016,8.569,16.425.041-.1.042.105Z" transform="translate(-419.077 -166.307)" fill="#161615"/>
      </g>
      <g id="Grupo_4" data-name="Grupo 4" transform="translate(3.844 5.884)">
        <path id="Trazado_10" data-name="Trazado 10" d="M428.579,200.384a26.66,26.66,0,1,1,26.659-26.66A26.691,26.691,0,0,1,428.579,200.384Zm0-52.64a25.98,25.98,0,1,0,25.979,25.98A26.009,26.009,0,0,0,428.579,147.744Z" transform="translate(-401.919 -147.064)" fill="#161615"/>
      </g>
      <g id="Grupo_5" data-name="Grupo 5">
        <path id="Trazado_11" data-name="Trazado 11" d="M428.81,203.5a32.544,32.544,0,1,1,32.545-32.544A32.581,32.581,0,0,1,428.81,203.5Zm0-61.008a28.464,28.464,0,1,0,28.465,28.464A28.5,28.5,0,0,0,428.81,142.491Z" transform="translate(-396.266 -138.411)" fill="#161615"/>
      </g>
    </g>
  </g>
</svg>
